<svg width="87" height="80" viewBox="0 0 87 80" fill="none" xmlns="http://www.w3.org/2000/svg">
<path d="M20 50C20 33.4315 33.4315 20 50 20C66.5685 20 80 33.4315 80 50C80 66.5685 66.5685 80 50 80C33.4315 80 20 66.5685 20 50Z" fill="#ECBC3E"/>
<path d="M21.6665 44.1668C13.3822 44.1668 6.6665 50.8825 6.6665 59.1668C6.6665 67.4511 13.3822 74.1668 21.6665 74.1668C29.9508 74.1668 36.6665 67.4511 36.6665 59.1668C36.6665 50.8825 29.9508 44.1668 21.6665 44.1668ZM21.6665 44.1668V13.3334" stroke="#171717" stroke-width="2.5" stroke-linecap="round" stroke-linejoin="round"/>
<ellipse cx="21.6665" cy="59.1665" rx="11.6667" ry="11.6667" stroke="#171717" stroke-width="2.5" stroke-linecap="round" stroke-linejoin="round"/>
<path d="M24.9998 54.4999H21.6664M18.333 63.8332C18.333 63.8332 19.887 63.8332 21.6664 63.8332M21.6664 54.4999H20.6663C19.3777 54.4999 18.333 55.5445 18.333 56.8332V56.8332C18.333 58.1219 19.3777 59.1665 20.6663 59.1665H22.6665C23.9551 59.1665 24.9998 60.2112 24.9998 61.4999V61.4999C24.9998 62.7885 23.9551 63.8332 22.6665 63.8332C22.331 63.8332 21.9949 63.8332 21.6664 63.8332M21.6664 54.4999V63.8332M21.6664 54.4999V52.4999M21.6664 63.8332V65.8332" stroke="#171717" stroke-width="2" stroke-linecap="round" stroke-linejoin="round"/>
<path d="M52.5001 47.4999C52.5001 51.1818 49.5153 54.1666 45.8334 54.1666C42.1515 54.1666 39.1667 51.1818 39.1667 47.4999C39.1667 43.818 42.1515 40.8333 45.8334 40.8333C49.5153 40.8333 52.5001 43.818 52.5001 47.4999Z" stroke="#171717" stroke-width="2.5" stroke-linecap="round" stroke-linejoin="round"/>
<path d="M65.8335 65.8335C65.8335 71.3563 61.3563 75.8335 55.8335 75.8335C50.3106 75.8335 45.8335 71.3563 45.8335 65.8335C45.8335 60.3106 50.3106 55.8335 55.8335 55.8335C61.3563 55.8335 65.8335 60.3106 65.8335 65.8335Z" stroke="#171717" stroke-width="2.5" stroke-linecap="round" stroke-linejoin="round"/>
<path d="M58.3335 62.3335H55.8335M53.3335 69.3335C53.3335 69.3335 54.499 69.3335 55.8335 69.3335M55.8335 62.3335H55.0835C54.117 62.3335 53.3335 63.117 53.3335 64.0835V64.0835C53.3335 65.05 54.117 65.8335 55.0835 65.8335H56.5835C57.55 65.8335 58.3335 66.617 58.3335 67.5835V67.5835C58.3335 68.55 57.55 69.3335 56.5835 69.3335C56.3319 69.3335 56.0798 69.3335 55.8335 69.3335M55.8335 62.3335V69.3335M55.8335 62.3335V60.8335M55.8335 69.3335V70.8335" stroke="#171717" stroke-width="2" stroke-linecap="round" stroke-linejoin="round"/>
<path d="M2 5.18132C2 5.08118 2.08118 5 2.18132 5H15.2056C21.1672 5 26 9.83281 26 15.7944V15.7944C26 15.9079 25.9079 16 25.7944 16H12.8187C6.84369 16 2 11.1563 2 5.18132V5.18132Z" stroke="#171717" stroke-width="2.5" stroke-linecap="round" stroke-linejoin="round"/>
<path d="M11 36.1154C11 36.0517 11.0517 36 11.1154 36H19.1308C22.9246 36 26 39.0754 26 42.8692V42.8692C26 42.9414 25.9414 43 25.8692 43H17.8846C14.0823 43 11 39.9177 11 36.1154V36.1154Z" stroke="#171717" stroke-width="2.5" stroke-linecap="round" stroke-linejoin="round"/>
<path d="M44 23.1319C44 23.059 43.941 23 43.8681 23H33.8505C29.5148 23 26 26.5148 26 30.8505V30.8505C26 30.9331 26.0669 31 26.1495 31H36.1319C40.4773 31 44 27.4773 44 23.1319V23.1319Z" stroke="#171717" stroke-width="2.5" stroke-linecap="round" stroke-linejoin="round"/>
<path d="M61.0901 31.4909L47 35.8182V39.5273H68.4415M61.0901 31.4909L68.4415 39.5273M61.0901 31.4909L58.3334 28.7091M68.4415 39.5273L68.9196 40.0097C70.1697 41.2712 71.9351 41.947 73.6161 41.374C75.9218 40.588 78.6596 39.1072 80.6938 37.0545C82.7745 34.9549 84.16 32.422 84.72 30.4632C85.0925 29.1602 84.4629 27.8761 83.509 26.9135L82.5317 25.9273M58.3334 28.7091L55.5766 25.9273L69.0541 12.3273L71.8109 15.1091M58.3334 28.7091L71.8109 15.1091M71.8109 15.1091L75.7282 11.1562C77.2245 9.64629 79.7731 10.1286 80.6142 12.0808L84.5546 21.2259C84.8214 21.8451 84.7582 22.5571 84.3865 23.1197L82.5317 25.9273M71.8109 15.1091L82.5317 25.9273M64.1532 28.7091L65.9911 30.5636M68.4415 32.7273L72.7298 37.0545" stroke="#171717" stroke-width="2.5" stroke-linecap="round" stroke-linejoin="round"/>
<path d="M42.0002 38H41.1315C36.3948 38 32.3078 41.3233 31.3417 45.9605L31.021 47.5" stroke="#171717" stroke-width="2.5" stroke-linecap="round" stroke-linejoin="round"/>
</svg>
