<svg width="80" height="80" viewBox="0 0 80 80" fill="none" xmlns="http://www.w3.org/2000/svg">
<path d="M20 50C20 33.4315 33.4315 20 50 20C66.5685 20 80 33.4315 80 50C80 66.5685 66.5685 80 50 80C33.4315 80 20 66.5685 20 50Z" fill="#ECBC3E"/>
<path d="M5 37.5V35.6666C5 33.4575 6.79086 31.6666 9 31.6666H41C43.2091 31.6666 45 33.4575 45 35.6666V37.5M5 37.5H45M5 37.5V41.25M45 37.5V41.25M45 41.25V53.5C45 55.7091 43.2091 57.5 41 57.5H9C6.79086 57.5 5 55.7091 5 53.5V41.25M45 41.25H5M9.58333 47.0833H19.1667M9.58333 50.4166H14.1667" stroke="#171717" stroke-width="2.5" stroke-linecap="round"/>
<path d="M25.833 27.5V14.8334C25.833 12.6242 27.6239 10.8334 29.833 10.8334H60.1663C62.3755 10.8334 64.1663 12.6242 64.1663 14.8334V66.9719C64.1663 67.8296 63.1574 68.2894 62.5102 67.7265L61.7705 67.0834C60.3967 65.8887 58.3527 65.8887 56.9788 67.0834V67.0834C55.605 68.278 53.561 68.278 52.1872 67.0834V67.0834C50.8133 65.8887 48.7693 65.8887 47.3955 67.0834V67.0834C46.0217 68.278 43.9777 68.278 42.6038 67.0834V67.0834C41.23 65.8887 39.186 65.8887 37.8122 67.0834V67.0834C36.4383 68.278 34.3943 68.278 33.0205 67.0834V67.0834C31.6467 65.8887 29.6027 65.8887 28.2288 67.0834L27.4892 67.7265C26.842 68.2894 25.833 67.8296 25.833 66.9719V61.25M32.083 18.3334H51.6663M32.083 24.1667H39.583" stroke="#171717" stroke-width="2.5" stroke-linecap="round"/>
</svg>
