<svg width="80" height="80" viewBox="0 0 80 80" fill="none" xmlns="http://www.w3.org/2000/svg">
<path d="M20 50C20 33.4315 33.4314 20 49.9999 20C66.5684 20 79.9999 33.4315 79.9999 50C79.9999 66.5685 66.5684 80 49.9999 80C33.4314 80 20 66.5685 20 50Z" fill="#ECBC3E"/>
<path d="M2.5 65.8334H74.1667" stroke="#171717" stroke-width="2.5" stroke-linecap="round" stroke-linejoin="round"/>
<rect x="31.6147" y="50.3311" width="33.5938" height="11.2319" rx="2" stroke="#171717" stroke-width="2.5"/>
<rect x="33.2944" y="43.9131" width="15.1172" height="6.41822" rx="2" stroke="#171717" stroke-width="2.5"/>
<rect x="48.4116" y="43.9131" width="15.1172" height="6.41822" rx="2" stroke="#171717" stroke-width="2.5"/>
<line x1="36.2241" y1="61.563" x2="36.2241" y2="66.3767" stroke="#171717" stroke-width="2.5"/>
<line x1="61.4194" y1="61.563" x2="61.4194" y2="66.3767" stroke="#171717" stroke-width="2.5"/>
<path d="M69.6877 65.8333V16.1666C69.6877 15.0621 68.7922 14.1666 67.6877 14.1666H55.1304M55.1304 14.1666L48.6889 21.243C48.5105 21.439 48.4116 21.6944 48.4116 21.9595V21.9595C48.4116 22.5473 48.8881 23.0238 49.4759 23.0238H60.7848C61.3726 23.0238 61.8491 22.5473 61.8491 21.9595V21.9595C61.8491 21.6944 61.7503 21.439 61.5719 21.243L55.1304 14.1666Z" stroke="#171717" stroke-width="2.5"/>
<path d="M10.6221 64.7103L11.7419 62.4639" stroke="#171717" stroke-width="2.5" stroke-linecap="round"/>
<path d="M21.8203 64.7103L20.7005 62.4639" stroke="#171717" stroke-width="2.5" stroke-linecap="round"/>
<path d="M10.6221 55.4438V55.4438C11.2876 57.6131 13.291 59.0941 15.5602 59.0941H16.882C19.1511 59.0941 21.1546 57.6131 21.82 55.4438V55.4438M10.6221 55.4438L9.59028 52.0801C9.53197 51.89 9.50233 51.6923 9.50233 51.4935V46.4927C9.50233 45.3881 10.3978 44.4927 11.5023 44.4927H20.9398C22.0444 44.4927 22.9398 45.3881 22.9398 46.4927V51.4935C22.9398 51.6923 22.9102 51.89 22.8519 52.0801L21.82 55.4438M10.6221 55.4438C13.9815 54.0398 18.2367 53.8713 21.82 55.4438M10.6221 55.4438C9.50233 51.7934 8.67546 51.3657 7.82265 51.7934C6.70292 52.355 6.90243 53.2323 7.26288 56.8478C7.7108 61.3405 11.1822 62.4637 16.2212 62.4637C21.2603 62.4637 24.7316 61.3405 25.1795 56.8478C25.54 53.2323 25.7394 52.355 24.6196 51.7934C23.7668 51.3657 22.9398 51.7934 21.82 55.4438" stroke="#171717" stroke-width="2.5"/>
<path d="M52.8906 23.1521H57.3698V23.3985C57.3698 24.503 56.4744 25.3985 55.3698 25.3985H54.8906C53.7861 25.3985 52.8906 24.503 52.8906 23.3985V23.1521Z" stroke="#171717" stroke-width="2.5"/>
<rect x="13.6978" y="22.0291" width="17.9167" height="12.3551" rx="1" stroke="#171717" stroke-width="2.5"/>
<path d="M18.1772 22.029L21.9482 18.2466C22.339 17.8546 22.9738 17.8546 23.3646 18.2466L27.1356 22.029" stroke="#171717" stroke-width="2.5"/>
</svg>
