<svg width="186" height="157" viewBox="0 0 186 157" fill="none" xmlns="http://www.w3.org/2000/svg">
<path d="M93 155.5C117.913 155.5 140.505 153.706 156.902 150.791C165.089 149.335 171.804 147.588 176.509 145.611C178.854 144.625 180.786 143.547 182.155 142.357C183.516 141.175 184.5 139.719 184.5 138C184.5 136.281 183.516 134.825 182.155 133.643C180.786 132.453 178.854 131.375 176.509 130.389C171.804 128.412 165.089 126.665 156.902 125.209C140.505 122.294 117.913 120.5 93 120.5C68.087 120.5 45.495 122.294 29.0978 125.209C20.9115 126.665 14.1957 128.412 9.49143 130.389C7.14553 131.375 5.21408 132.453 3.84472 133.643C2.48428 134.825 1.5 136.281 1.5 138C1.5 139.719 2.48428 141.175 3.84472 142.357C5.21408 143.547 7.14553 144.625 9.49143 145.611C14.1957 147.588 20.9115 149.335 29.0978 150.791C45.495 153.706 68.087 155.5 93 155.5Z" fill="#FFD871" stroke="#171717" stroke-width="3"/>
<path d="M27.9018 62.2388L92.5051 14.7179L159.5 62.2388L92.5051 89.0005L27.9018 62.2388Z" fill="#F3F3F3"/>
<path d="M160 64L95.753 15.2284C94.0186 13.9118 91.6187 13.915 89.8878 15.2361L26 64" stroke="#171717" stroke-width="3.02609" stroke-linecap="round" stroke-linejoin="round"/>
<path d="M93.4128 88.7073C93.1702 88.7076 92.93 88.6609 92.7054 88.5698L52.8625 72.1614V20.8006C52.8631 20.3464 53.0451 19.911 53.3687 19.5899C53.6922 19.2687 54.1309 19.0881 54.5885 19.0875H131.024C131.482 19.0881 131.92 19.2687 132.244 19.5899C132.567 19.911 132.749 20.3464 132.75 20.8006V72.1973L132.675 72.2291L94.1417 88.5618C93.9109 88.658 93.6631 88.7075 93.4128 88.7073Z" fill="#FFF7E3" stroke="#ECBC3E" stroke-width="3.02609"/>
<path d="M155.984 62.8864L95.6085 88.3581C94.4199 88.8595 93.0803 88.8659 91.887 88.3758L29.5975 62.7936C26.4114 61.4851 22.9164 63.828 22.9164 67.2724V133.159C22.9164 135.833 25.0841 138.001 27.7581 138.001H157.866C160.54 138.001 162.708 135.833 162.708 133.159V67.3474C162.708 63.8832 159.176 61.5398 155.984 62.8864Z" fill="white" stroke="#171717" stroke-width="3.02609" stroke-linecap="round" stroke-linejoin="round"/>
<path d="M94.3448 65.4575C101.904 65.4575 108.032 59.3755 108.032 51.8728C108.032 44.3702 101.904 38.2881 94.3448 38.2881C86.7856 38.2881 80.6577 44.3702 80.6577 51.8728C80.6577 59.3755 86.7856 65.4575 94.3448 65.4575Z" fill="white"/>
<path d="M92.7012 46.1678V44.1296" stroke="#ECBC3E" stroke-width="3.02609" stroke-miterlimit="10" stroke-linecap="round" stroke-linejoin="round"/>
<path d="M92.7012 56.356V54.3179" stroke="#ECBC3E" stroke-width="3.02609" stroke-miterlimit="10" stroke-linecap="round" stroke-linejoin="round"/>
<path d="M94.7554 46.1659H92.018C90.8847 46.1659 89.965 47.0788 89.965 48.2036C89.965 49.3284 90.8847 50.2413 92.018 50.2413H93.3867C94.52 50.2413 95.4398 51.1542 95.4398 52.279C95.4398 53.4038 94.52 54.3167 93.3867 54.3167H89.965" stroke="#ECBC3E" stroke-width="3.02609" stroke-miterlimit="10" stroke-linecap="round" stroke-linejoin="round"/>
<path d="M92.7021 63.8274C100.261 63.8274 106.389 57.7453 106.389 50.2427C106.389 42.74 100.261 36.658 92.7021 36.658C85.1429 36.658 79.015 42.74 79.015 50.2427C79.015 57.7453 85.1429 63.8274 92.7021 63.8274Z" stroke="#ECBC3E" stroke-width="3.02609" stroke-miterlimit="10" stroke-linecap="round" stroke-linejoin="round"/>
<line x1="1.51305" y1="-1.51305" x2="6.74603" y2="-1.51305" transform="matrix(0.113608 0.992985 -0.994235 0.112056 133.836 3.6532)" stroke="#7ABFFF" stroke-width="3.02609" stroke-linecap="round" stroke-linejoin="round"/>
<line x1="1.51305" y1="-1.51305" x2="6.77895" y2="-1.51305" transform="matrix(-0.599662 0.798041 -0.805181 -0.596011 145.041 6.06543)" stroke="#3CBA83" stroke-width="3.02609" stroke-linecap="round" stroke-linejoin="round"/>
<line x1="1.51305" y1="-1.51305" x2="6.79893" y2="-1.51305" transform="matrix(-0.959483 0.28144 -0.285406 -0.958504 151.528 14.667)" stroke="#FF5C5C" stroke-width="3.02609" stroke-linecap="round" stroke-linejoin="round"/>
<line x1="1.51305" y1="-1.51305" x2="6.7422" y2="-1.51305" transform="matrix(0.169807 0.985524 0.985844 -0.167398 20.5944 44.7831)" stroke="#7ABFFF" stroke-width="3.02609" stroke-linecap="round" stroke-linejoin="round"/>
<line x1="1.51305" y1="-1.51305" x2="6.77988" y2="-1.51305" transform="matrix(0.799878 0.600413 0.605992 -0.795281 10.5132 50.1996)" stroke="#3CBA83" stroke-width="3.02609" stroke-linecap="round" stroke-linejoin="round"/>
<line x1="1.51305" y1="-1.51305" x2="6.80299" y2="-1.51305" transform="matrix(0.999996 0.00484118 0.00491433 -0.99998 6.69672 60.2549)" stroke="#FF5C5C" stroke-width="3.02609" stroke-linecap="round" stroke-linejoin="round"/>
<path d="M32.1235 104.52H45.2759" stroke="#171717" stroke-width="3.02609" stroke-linecap="round"/>
<path d="M32.3124 110.86H62.3751" stroke="#171717" stroke-width="3.02609" stroke-linecap="round"/>
</svg>
