<svg width="24" height="24" viewBox="0 0 24 24" fill="none" xmlns="http://www.w3.org/2000/svg">
<path d="M19 19C19 19.5523 18.5523 20 18 20H6C5.44772 20 5 19.5523 5 19V10C5 9.44771 5.44772 9 6 9H18C18.5523 9 19 9.44772 19 10V19ZM16 2V4H8V2H6V4H5C3.89 4 3 4.89 3 6V20C3 20.5304 3.21071 21.0391 3.58579 21.4142C3.96086 21.7893 4.46957 22 5 22H19C19.5304 22 20.0391 21.7893 20.4142 21.4142C20.7893 21.0391 21 20.5304 21 20V6C21 5.46957 20.7893 4.96086 20.4142 4.58579C20.0391 4.21071 19.5304 4 19 4H18V2H16ZM17 14C17 13.4477 16.5523 13 16 13H13C12.4477 13 12 13.4477 12 14V17C12 17.5523 12.4477 18 13 18H16C16.5523 18 17 17.5523 17 17V14Z" fill="#FFFFFF"/>
</svg>
