<svg version="1.2" xmlns="http://www.w3.org/2000/svg" viewBox="0 0 16 16" width="16" height="16"><style>.a{fill:#2a6ed5}</style><path fill-rule="evenodd" class="a" d="m16 8c0 2.1-0.8 4.2-2.3 5.7-1.5 1.5-3.6 2.3-5.7 2.3-2.1 0-4.2-0.8-5.7-2.3-1.5-1.5-2.3-3.6-2.3-5.7 0-2.1 0.8-4.2 2.3-5.7 1.5-1.5 3.6-2.3 5.7-2.3 2.1 0 4.2 0.8 5.7 2.3 1.5 1.5 2.3 3.6 2.3 5.7zm-4-3q-0.1-0.1-0.2-0.2-0.2-0.1-0.3 0-0.2 0-0.3 0-0.1 0.1-0.3 0.2l-3.4 4.4-2.1-2.1q-0.2-0.2-0.5-0.2-0.3 0-0.6 0.2-0.2 0.3-0.2 0.6 0 0.3 0.2 0.5l2.7 2.6q0.1 0.1 0.2 0.2 0.2 0.1 0.3 0 0.2 0 0.3 0 0.1-0.1 0.2-0.2l4-5q0.2-0.2 0.3-0.5-0.1-0.3-0.3-0.5z"/></svg>