<?xml version="1.0" standalone="no"?>
<!DOCTYPE svg PUBLIC "-//W3C//DTD SVG 20010904//EN"
 "http://www.w3.org/TR/2001/REC-SVG-20010904/DTD/svg10.dtd">
<svg version="1.0" xmlns="http://www.w3.org/2000/svg"
 width="200.000000pt" height="192.000000pt" viewBox="0 0 200.000000 192.000000"
 preserveAspectRatio="xMidYMid meet">

<g transform="translate(0.000000,192.000000) scale(0.100000,-0.100000)"
fill="#000000" stroke="none">
<path d="M870 1910 c-254 -32 -444 -149 -533 -329 -30 -61 -32 -73 -32 -166 0
-93 2 -105 32 -165 18 -36 53 -89 78 -118 45 -50 46 -53 35 -86 -26 -80 -113
-188 -190 -236 l-35 -22 64 7 c108 11 251 53 351 102 l96 48 59 -13 c81 -17
329 -10 410 13 182 50 334 165 403 303 35 71 37 82 37 166 0 78 -4 99 -28 150
-58 125 -146 209 -288 276 -128 60 -314 88 -459 70z"/>
<path d="M1315 719 c-35 -5 -87 -23 -125 -43 -292 -152 -268 -143 -610 -246
-166 -51 -202 -76 -185 -129 17 -54 131 -52 393 7 95 21 175 35 178 31 6 -10
1 -11 -188 -53 -263 -60 -353 -60 -388 -3 -11 18 -18 39 -15 47 3 11 -41 39
-164 103 -92 48 -175 87 -184 87 -20 0 -29 -27 -17 -50 19 -36 158 -154 265
-226 181 -120 427 -227 556 -241 75 -8 137 14 242 83 177 118 354 175 478 155
l47 -7 72 180 72 181 -24 18 c-36 30 -128 74 -189 90 -75 21 -143 26 -214 16z"/>
<path d="M1797 606 c-26 -26 -180 -424 -173 -449 3 -13 20 -30 40 -40 47 -22
164 -43 175 -31 4 5 43 103 85 217 l78 209 -24 25 c-36 40 -109 83 -139 83
-15 0 -34 -6 -42 -14z"/>
<path d="M220 565 c-7 -9 -11 -17 -9 -19 2 -2 57 -31 122 -66 65 -34 116 -64
114 -66 -2 -3 -74 31 -160 76 -162 83 -218 98 -231 63 -4 -9 -3 -20 1 -24 4
-4 79 -44 166 -89 152 -79 159 -82 177 -65 11 10 55 30 97 45 l78 27 -90 46
c-50 25 -87 46 -82 46 4 1 47 -19 96 -43 87 -44 88 -45 137 -32 l49 13 -73 36
c-119 61 -222 79 -222 40 0 -11 -5 -13 -17 -8 -36 15 -107 35 -123 35 -10 0
-23 -7 -30 -15z"/>
</g>
</svg>
