<?xml version="1.0" standalone="no"?>
<!DOCTYPE svg PUBLIC "-//W3C//DTD SVG 20010904//EN"
 "http://www.w3.org/TR/2001/REC-SVG-20010904/DTD/svg10.dtd">
<svg version="1.0" xmlns="http://www.w3.org/2000/svg"
 width="183.000000pt" height="170.000000pt" viewBox="0 0 183.000000 170.000000"
 preserveAspectRatio="xMidYMid meet">

<g transform="translate(0.000000,170.000000) scale(0.100000,-0.100000)"
fill="#000000" stroke="none">
<path d="M170 1605 l0 -94 -82 -3 c-66 -2 -83 -6 -83 -18 0 -12 17 -16 83 -18
l82 -3 0 -84 0 -84 -82 -3 c-66 -2 -83 -6 -83 -18 0 -12 18 -16 80 -20 l80 -5
0 -85 0 -85 -80 -5 c-62 -4 -80 -8 -80 -20 0 -12 17 -16 83 -18 l82 -3 0 -84
0 -84 -82 -3 c-66 -2 -83 -6 -83 -18 0 -12 17 -16 83 -18 l82 -3 0 -84 0 -84
-82 -3 c-66 -2 -83 -6 -83 -18 0 -12 17 -16 83 -18 l82 -3 0 -84 0 -84 -82 -3
c-66 -2 -83 -6 -83 -18 0 -12 18 -16 80 -20 l80 -5 0 -85 0 -85 -80 -5 c-62
-4 -80 -8 -80 -20 0 -12 17 -16 83 -18 l82 -3 0 -89 0 -90 85 0 85 0 0 845 0
845 -85 0 -85 0 0 -95z"/>
<path d="M377 1693 c-4 -3 -7 -381 -7 -840 l0 -833 495 0 495 0 0 840 0 840
-488 0 c-269 0 -492 -3 -495 -7z m173 -123 l0 -40 -40 0 -40 0 0 40 0 40 40 0
40 0 0 -40z m178 -2 l3 -38 -45 0 c-45 0 -46 0 -46 33 0 43 6 49 50 45 33 -3
35 -5 38 -40z m172 2 l0 -40 -40 0 -40 0 0 40 0 40 40 0 40 0 0 -40z m178 -2
l3 -38 -45 0 c-45 0 -46 0 -46 33 0 43 6 49 50 45 33 -3 35 -5 38 -40z m172 2
l0 -40 -40 0 -40 0 0 40 0 40 40 0 40 0 0 -40z m-65 -355 l0 -220 -314 -3
c-223 -2 -318 1 -327 9 -19 16 -20 409 -2 427 9 9 91 12 328 10 l315 -3 0
-220z m3 -417 c3 -17 -17 -18 -322 -18 -265 0 -326 2 -326 13 0 8 3 17 7 20 4
4 149 6 322 5 292 -3 316 -4 319 -20z m0 -190 c3 -17 -17 -18 -322 -18 -265 0
-326 2 -326 13 0 8 3 17 7 20 4 4 149 6 322 5 292 -3 316 -4 319 -20z"/>
<path d="M580 1215 l0 -185 285 0 285 0 0 185 0 185 -285 0 -285 0 0 -185z"/>
<path d="M1540 1590 l0 -100 85 0 85 0 0 100 0 100 -85 0 -85 0 0 -100z"/>
<path d="M1540 1190 l0 -260 80 0 80 0 2 238 3 237 42 3 43 3 2 -183 c3 -155
5 -183 18 -183 13 0 15 29 15 200 l0 200 -142 3 -143 3 0 -261z"/>
<path d="M1540 815 l0 -75 85 0 85 0 0 75 0 75 -85 0 -85 0 0 -75z"/>
<path d="M1540 625 l0 -75 85 0 85 0 0 75 0 75 -85 0 -85 0 0 -75z"/>
<path d="M1540 440 l0 -70 85 0 86 0 -3 68 -3 67 -82 3 -83 3 0 -71z"/>
<path d="M1577 213 c19 -65 37 -120 39 -122 7 -8 12 4 47 122 l35 117 -78 0
-78 0 35 -117z"/>
</g>
</svg>
