<?xml version="1.0" standalone="no"?>
<!DOCTYPE svg PUBLIC "-//W3C//DTD SVG 20010904//EN"
 "http://www.w3.org/TR/2001/REC-SVG-20010904/DTD/svg10.dtd">
<svg version="1.0" xmlns="http://www.w3.org/2000/svg"
 width="144.000000pt" height="173.000000pt" viewBox="0 0 144.000000 173.000000"
 preserveAspectRatio="xMidYMid meet">

<g transform="translate(0.000000,173.000000) scale(0.100000,-0.100000)"
fill="#000000" stroke="none">
<path d="M603 1711 l-33 -21 -1 -87 0 -88 -22 67 -22 67 -61 -38 c-73 -47
-119 -98 -150 -166 -41 -89 -41 -107 1 -143 20 -18 63 -46 95 -62 33 -17 60
-32 60 -35 0 -6 -117 38 -158 59 -17 9 -38 16 -46 16 -21 0 -30 -42 -21 -98 4
-26 7 -75 6 -108 -3 -82 17 -127 85 -194 31 -30 77 -84 102 -120 126 -174 332
-209 499 -84 17 13 53 56 79 96 26 40 67 90 91 112 67 59 79 92 87 239 9 162
8 164 -82 132 -37 -13 -82 -31 -100 -40 -18 -9 -38 -14 -45 -12 -7 3 -5 6 6 6
9 1 17 6 17 11 0 6 7 10 15 10 15 0 107 52 138 78 22 20 22 48 -4 114 -25 68
-112 166 -173 199 -54 28 -60 23 -71 -47 -11 -76 -25 -60 -25 29 0 114 -8 121
-139 125 -82 3 -101 0 -128 -17z m-223 -632 c90 -34 193 -49 340 -49 151 0
259 16 339 50 27 12 55 19 60 15 35 -21 -12 -141 -66 -170 -26 -14 -45 -37
-66 -78 -38 -74 -120 -150 -182 -167 -69 -19 -168 -7 -217 27 -58 39 -137 130
-146 166 -6 23 -18 37 -45 50 -50 23 -77 69 -77 130 0 26 1 47 3 47 1 0 27 -9
57 -21z"/>
<path d="M385 596 c-39 -25 -101 -61 -138 -82 -87 -48 -172 -131 -206 -203
-24 -51 -26 -67 -26 -176 l0 -120 699 -3 c537 -2 702 1 713 10 12 10 14 33 11
113 -6 131 -32 199 -99 263 -58 55 -189 149 -282 204 -60 35 -69 37 -83 24 -8
-8 -49 -32 -91 -53 -65 -32 -85 -37 -147 -37 -84 -1 -150 20 -225 69 -29 19
-54 35 -55 35 -1 0 -33 -20 -71 -44z m163 -78 c82 -41 90 -43 176 -43 84 0 98
3 179 38 90 39 132 43 143 13 3 -8 -8 -49 -25 -91 -17 -42 -31 -86 -31 -97 0
-12 -7 -30 -17 -40 -15 -16 -36 -18 -259 -18 l-243 0 -35 110 c-42 129 -43
143 -13 158 32 16 31 16 125 -30z m-248 -268 c5 -41 12 -99 16 -127 l6 -53
-126 0 -126 0 0 63 c0 129 51 225 150 285 l55 33 8 -63 c4 -35 12 -97 17 -138z
m921 167 c90 -68 149 -186 149 -298 l0 -49 -121 0 -121 0 7 23 c4 12 12 97 18
190 6 92 14 167 18 167 4 0 27 -15 50 -33z"/>
</g>
</svg>
